#!Matlab matrix to amc conversion
:FULLY-SPECIFIED
:DEGREES
16
root 9.192140 16.357400 -29.724600 1.594644 1.634016 0.121521
lowerback 14.888385 -0.302106 3.988620
upperback 0.523185 0.559138 3.422947
thorax -7.878297 0.203939 1.452621
lowerneck -11.660373 -0.042950 -1.676665
upperneck 29.637491 0.935002 -1.961184
head 11.792731 -0.002628 -0.335919
rclavicle -0.000000 0.000000
rhumerus -31.096754 -7.236209 -76.784285
rradius 34.307460
rwrist -2.951210
rhand -13.511940 9.905447
rfingers 7.125020
rthumb 12.600690 -19.665645
lclavicle -0.000000 0.000000
lhumerus -41.711953 4.797040 84.987377
lradius 39.627041
lwrist 4.740981
lhand -10.978978 46.532281
lfingers 7.125020
lthumb 15.033823 75.863039
rfemur -5.432949 5.351020 32.701952
rtibia 29.019435
rfoot -14.444742 -11.406303
rtoes 12.893924
lfemur -19.585938 0.617835 -14.180115
ltibia 55.694109
lfoot -6.353385 2.877369
ltoes -17.312908
17
root 9.191770 16.245600 -29.440800 1.630124 1.634016 0.116485
lowerback 14.867046 -0.198376 4.400418
upperback 0.637332 0.807518 3.468458
thorax -7.764804 0.303249 1.136087
lowerneck -11.800180 -0.137057 -1.737020
upperneck 29.868782 0.795031 -1.875232
head 11.915485 -0.064281 -0.311572
rclavicle -0.000000 0.000000
rhumerus -30.127232 -6.615298 -76.774371
rradius 35.755872
rwrist -3.980602
rhand -13.702996 9.822939
rfingers 7.125020
rthumb 12.415321 -19.754588
lclavicle -0.000000 0.000000
lhumerus -41.803695 5.143781 84.846612
lradius 39.657114
lwrist 4.838250
lhand -10.871117 46.858157
lfingers 7.125020
lthumb 15.138470 76.172041
rfemur -3.264664 5.674648 33.496368
rtibia 28.763052
rfoot -15.415352 -11.915199
rtoes 12.208295
lfemur -22.016842 0.664777 -13.696330
ltibia 52.753351
lfoot -8.624613 4.761136
ltoes -17.298098
18
root 9.208550 16.156600 -29.151500 1.678606 1.634016 0.107340
lowerback 14.833434 -0.086210 4.860104
upperback 0.743396 1.072779 3.509043
thorax -7.644788 0.410165 0.803952
lowerneck -11.956245 -0.232237 -1.792575
upperneck 30.096625 0.652057 -1.787548
head 12.038824 -0.126494 -0.289713
rclavicle -0.000000 0.000000
rhumerus -29.131975 -5.918355 -76.759013
rradius 37.217432
rwrist -5.044641
rhand -13.892005 9.721694
rfingers 7.125020
rthumb 12.231923 -19.860928
lclavicle -0.000000 0.000000
lhumerus -41.918898 5.514326 84.671613
lradius 39.658377
lwrist 4.905238
lhand -10.756331 47.163466
lfingers 7.125020
lthumb 15.249732 76.459894
rfemur -1.046787 6.001661 34.290898
rtibia 28.397898
rfoot -16.409841 -12.432237
rtoes 11.456491
lfemur -24.480860 0.588057 -13.197639
ltibia 48.434839
lfoot -10.956928 6.869943
ltoes -17.220909
19
root 9.222000 16.080900 -28.855000 1.766247 1.634016 0.082302
lowerback 14.787119 0.039361 5.464080
upperback 0.844875 1.371515 3.548048
thorax -7.514395 0.531341 0.430687
lowerneck -12.139049 -0.332940 -1.847377
upperneck 30.323889 0.497899 -1.684452
head 12.164556 -0.192129 -0.267476
rclavicle -0.000000 0.000000
rhumerus -28.009253 -5.060881 -76.736030
rradius 38.742029
rwrist -6.228671
rhand -14.083242 9.566631
rfingers 7.125020
rthumb 12.046354 -20.021922
lclavicle -0.000000 0.000000
lhumerus -42.062037 5.921273 84.457532
lradius 39.630960
lwrist 4.946125
lhand -10.631911 47.452529
lfingers 7.125020
lthumb 15.370236 76.730568
rfemur 1.294714 6.341792 35.142664
rtibia 27.814704
rfoot -17.528245 -12.989632
rtoes 10.588053
lfemur -27.153780 0.351906 -12.600149
ltibia 41.566152
lfoot -13.558804 9.392909
ltoes -17.047159
20
root 9.232280 16.013400 -28.551200 1.919680 1.634016 0.103311
lowerback 14.556432 0.287623 5.774935
upperback 0.625980 1.740339 3.555307
thorax -7.580921 0.698674 0.292282
lowerneck -11.922947 -0.385336 -2.022368
upperneck 30.308322 0.431117 -1.602581
head 12.101419 -0.232620 -0.215465
rclavicle -0.000000 0.000000
rhumerus -28.070661 -5.058057 -76.556321
rradius 38.293999
rwrist -5.659196
rhand -14.016808 9.712344
rfingers 7.125020
rthumb 12.110352 -19.877640
lclavicle -0.000000 0.000000
lhumerus -42.499270 6.244263 84.260069
lradius 39.178140
lwrist 4.905465
lhand -10.939594 47.322090
lfingers 7.125020
lthumb 15.070995 76.629943
rfemur 4.283882 6.660031 35.125803
rtibia 24.511959
rfoot -16.983346 -12.564594
rtoes 7.987351
lfemur -27.012628 -3.734126 -11.693453
ltibia 31.919624
lfoot -13.491519 11.488053
ltoes -16.797957
21
root 9.239730 15.970900 -28.241000 2.017644 1.634016 0.110424
lowerback 14.328485 0.501323 5.933005
upperback 0.421955 2.016428 3.555534
thorax -7.641008 0.826704 0.174660
lowerneck -11.724489 -0.435179 -2.183799
upperneck 30.292930 0.368762 -1.530122
head 12.039885 -0.270952 -0.170266
rclavicle -0.000000 0.000000
rhumerus -28.149673 -5.083625 -76.392737
rradius 37.854944
rwrist -5.122168
rhand -13.953064 9.855153
rfingers 7.125020
rthumb 12.171733 -19.736382
lclavicle -0.000000 0.000000
lhumerus -42.916546 6.580178 84.047617
lradius 38.714494
lwrist 4.843524
lhand -11.234200 47.189030
lfingers 7.125020
lthumb 14.784300 76.525123
rfemur 6.796180 6.959391 35.077213
rtibia 22.710581
rfoot -16.584416 -12.151990
rtoes 5.829832
lfemur -26.892249 -6.025480 -11.157348
ltibia 27.179169
lfoot -13.330863 12.441600
ltoes -16.614383
22
root 9.241850 15.946000 -27.925100 2.086600 1.634016 0.109484
lowerback 14.099564 0.696950 6.008824
upperback 0.225750 2.243792 3.548741
thorax -7.696223 0.934143 0.067819
lowerneck -11.536467 -0.483478 -2.337352
upperneck 30.277547 0.309124 -1.462310
head 11.979227 -0.308020 -0.128972
rclavicle -0.000000 0.000000
rhumerus -28.248072 -5.138090 -76.239679
rradius 37.401941
rwrist -4.601686
rhand -13.891095 10.000573
rfingers 7.125020
rthumb 12.231375 -19.592129
lclavicle -0.000000 0.000000
lhumerus -43.328079 6.934204 83.817331
lradius 38.225101
lwrist 4.756882
lhand -11.521004 47.051500
lfingers 7.125020
lthumb 14.505022 76.414675
rfemur 9.035505 7.248848 34.990885
rtibia 21.723308
rfoot -16.232037 -11.742930
rtoes 3.906057
lfemur -26.782381 -7.300371 -10.890486
ltibia 24.770434
lfoot -13.039012 12.790176
ltoes -16.422476
23
root 9.242890 15.925900 -27.604900 2.145176 1.634016 0.099721
lowerback 13.865939 0.889601 6.036224
upperback 0.030587 2.458677 3.534574
thorax -7.748003 1.036693 -0.037328
lowerneck -11.352051 -0.531212 -2.488432
upperneck 30.262005 0.250565 -1.394683
head 11.918731 -0.344692 -0.088924
rclavicle -0.000000 0.000000
rhumerus -28.368079 -5.222522 -76.091912
rradius 36.911339
rwrist -4.082339
rhand -13.830013 10.154223
rfingers 7.125020
rthumb 12.290135 -19.438732
lclavicle -0.000000 0.000000
lhumerus -43.747889 7.311804 83.566130
lradius 37.694216
lwrist 4.640761
lhand -11.805145 46.907589
lfingers 7.125020
lthumb 14.228166 76.297086
rfemur 11.183596 7.537083 34.856141
rtibia 21.173477
rfoot -15.838395 -11.328598
rtoes 2.029279
lfemur -26.673656 -7.991793 -10.842419
ltibia 23.385325
lfoot -12.547254 12.729947
ltoes -16.144918
24
root 9.243090 15.943100 -27.273700 2.209193 1.634016 0.073112
lowerback 13.623803 1.094140 6.027431
upperback -0.170277 2.695337 3.512293
thorax -7.797699 1.149339 -0.149722
lowerneck -11.164543 -0.579347 -2.642359
upperneck 30.246137 0.191477 -1.322792
head 11.857685 -0.381825 -0.047544
rclavicle -0.000000 0.000000
rhumerus -28.512403 -5.338582 -75.944380
rradius 36.357524
rwrist -3.548752
rhand -13.768944 10.322039
rfingers 7.125020
rthumb 12.348853 -19.269655
lclavicle -0.000000 0.000000
lhumerus -44.190277 7.718806 83.290653
lradius 37.104757
lwrist 4.488751
lhand -12.091711 46.755299
lfingers 7.125020
lthumb 13.948779 76.170750
rfemur 13.414791 7.832738 34.656313
rtibia 20.851315
rfoot -15.305392 -10.900067
rtoes 0.017311
lfemur -26.556807 -8.334573 -11.004061
ltibia 22.271645
lfoot -11.739812 12.227019
ltoes -15.669884
25
root 9.241190 15.944900 -26.946700 1.742970 1.634016 -0.443556
lowerback 13.328295 1.255787 4.417825
upperback -0.384102 2.629400 2.987165
thorax -7.878568 1.165912 0.119804
lowerneck -11.348395 -0.517649 -2.397526
upperneck 31.267343 0.268156 -1.346605
head 12.344520 -0.335304 -0.092092
rclavicle -0.000000 0.000000
rhumerus -30.126034 -7.376610 -75.524209
rradius 34.376576
rwrist -2.332927
rhand -13.687814 10.811327
rfingers 7.125020
rthumb 12.425280 -18.766463
lclavicle -0.000000 0.000000
lhumerus -43.865267 8.157601 83.140278
lradius 35.776244
lwrist 4.311580
lhand -12.096061 46.441358
lfingers 7.125020
lthumb 13.950417 75.880511
rfemur 12.468774 7.323578 32.084409
rtibia 27.131776
rfoot -9.409151 -9.971216
rtoes -1.577203
lfemur -24.162208 -8.133431 -13.820575
ltibia 22.765803
lfoot -6.872503 10.587113
ltoes -13.671843
26
root 9.242210 15.966300 -26.610400 1.312357 1.634016 -0.351533
lowerback 13.067777 1.379054 2.925172
upperback -0.595600 2.550711 2.488671
thorax -7.989767 1.168841 0.397065
lowerneck -11.487757 -0.459928 -2.183881
upperneck 32.297286 0.339249 -1.359708
head 12.830579 -0.291694 -0.121840
rclavicle -0.000000 0.000000
rhumerus -31.736542 -9.423926 -75.062000
rradius 32.432872
rwrist -1.108106
rhand -13.605215 11.237547
rfingers 7.125020
rthumb 12.503073 -18.333521
lclavicle -0.000000 0.000000
lhumerus -43.513377 8.419837 83.203433
lradius 34.653415
lwrist 4.278897
lhand -12.107308 46.195167
lfingers 7.125020
lthumb 13.945148 75.659294
rfemur 11.592796 6.805712 29.653189
rtibia 33.186572
rfoot -4.173119 -9.070322
rtoes -2.854905
lfemur -21.811726 -7.876429 -16.526473
ltibia 23.044419
lfoot -2.557964 9.123755
ltoes -11.589851
27
root 9.248620 16.002100 -26.265200 1.149993 1.634016 -0.205054
lowerback 13.218061 1.228022 1.497727
upperback -0.478185 2.114039 2.104870
thorax -7.970986 1.000323 0.819430
lowerneck -11.220360 -0.383761 -2.346519
upperneck 31.966868 0.459176 -1.369231
head 12.638188 -0.251570 -0.078793
rclavicle -0.000000 0.000000
rhumerus -32.727410 -10.255646 -75.063553
rradius 30.954872
rwrist -0.558573
rhand -13.697401 11.410750
rfingers 7.125020
rthumb 12.415088 -18.165771
lclavicle -0.000000 0.000000
lhumerus -43.003028 8.229022 83.163982
lradius 34.650985
lwrist 4.446758
lhand -12.105215 46.495479
lfingers 7.125020
lthumb 13.955456 75.964824
rfemur 6.349961 5.522420 26.722367
rtibia 42.258991
rfoot 2.091930 -9.150767
rtoes 1.767486
lfemur -18.964171 -6.455524 -19.234941
ltibia 22.727877
lfoot -3.038951 7.035036
ltoes -8.529998
28
root 9.251840 16.054000 -25.912300 1.053509 1.634016 -0.142477
lowerback 13.361352 1.102885 0.425903
upperback -0.361259 1.741795 1.757608
thorax -7.944758 0.858314 1.211833
lowerneck -10.972887 -0.309114 -2.489643
upperneck 31.639889 0.575284 -1.377134
head 12.448617 -0.212263 -0.043279
rclavicle -0.000000 0.000000
rhumerus -33.669985 -11.026306 -75.082212
rradius 29.691786
rwrist -0.070614
rhand -13.778247 11.549993
rfingers 7.125020
rthumb 12.337885 -18.031471
lclavicle -0.000000 0.000000
lhumerus -42.525597 8.024858 83.166019
lradius 34.692442
lwrist 4.624342
lhand -12.102087 46.779840
lfingers 7.125020
lthumb 13.966842 76.253874
rfemur 1.335732 4.417974 24.437556
rtibia 50.137367
rfoot 5.535362 -9.259667
rtoes 5.481636
lfemur -16.277465 -5.353405 -21.478809
ltibia 22.504217
lfoot -3.546237 5.215139
ltoes -6.929821
